# xmcd
#
# Track frame offsets:
#       150
#       12232
#       22635
#       39119
#       55595
#       70396
#       87348
#       104492
#       121186
#       135956
#       150777
#       167655
#       183604
#
# Disc length: 2587 seconds
#
# Revision: 0
# Processed by: cddbd v1.4PL0 Copyright (c) Steve Scherf et al.
# Submitted via: CD-DA_X-Tractor v0.21
#
DISCID=8e0a190d
DTITLE=La Mississippi - Bit Hippie
DYEAR=2003
DGENRE=blues
TTITLE0=Perro Guardián
TTITLE1=El Municipal
TTITLE2=Obsesión
TTITLE3=Incidentes En La Ruta
TTITLE4=Gente Mala
TTITLE5=Mi Capital
TTITLE6=El Detalle
TTITLE7=Valentín Alsina (Ritmo y Blues)
TTITLE8=Hola Y Adiós
TTITLE9=Sin rumbo
TTITLE10=La Misma Moneda
TTITLE11=Un Día Feliz
TTITLE12=Fauna De Bar (Bonus Track)
EXTD=
EXTT0=
EXTT1=
EXTT2=
EXTT3=
EXTT4=
EXTT5=
EXTT6=
EXTT7=
EXTT8=
EXTT9=
EXTT10=
EXTT11=
EXTT12=
PLAYORDER=
